<svg width="85" height="46" viewBox="0 0 85 46" fill="none" xmlns="http://www.w3.org/2000/svg">
<g clip-path="url(#clip0_403_62)">
<path d="M0 46V1L5.79488 30.2537L14.0582 11.4485L12.4808 36.2262L27.1357 25.6268L19.0069 39.9578L30 46H0Z" fill="#3232D6"/>
<path d="M35 46H32V18H35V46Z" fill="#3232D6"/>
<path d="M49.0967 20.1221C45.3188 20.1221 42.8183 22.0909 42.8183 24.7725C42.8183 27.7818 46.2072 28.8758 48.3187 29.4228L51.2082 30.1889C54.1519 30.9551 59.2071 32.6513 59.2071 37.902C59.2071 42.4417 55.4854 45.9981 48.9303 45.9981C42.8183 45.9981 39.0405 42.8801 38.7076 38.2851H42.2629C42.5396 41.4583 45.5414 42.9354 48.9303 42.9354C52.8746 42.9354 55.8744 40.9113 55.8744 37.8467C55.8744 35.0565 53.2075 34.0178 50.2076 33.1964L46.7084 32.2111C42.2648 30.9532 39.4856 28.71 39.4856 24.9345C39.4856 20.2289 43.7628 17.1109 49.207 17.1109C54.6512 17.1109 58.6652 20.2708 58.8181 24.4961H55.4854C55.1525 21.7326 52.5417 20.1202 49.0967 20.1202V20.1221Z" fill="#3232D6"/>
<path d="M61 18.0019H82V21.0099H73.1965V46H69.8054V21.008H61.0019V18L61 18.0019Z" fill="#3232D6"/>
<path d="M32 18L32.0101 11L35 18" fill="#3232D6"/>
<path d="M82.0039 18L84.3089 21.0056L82 21.0094" fill="#3232D6"/>
<path d="M55.4661 24.2045L55.6557 28.2888L58.8181 24.4999" fill="#3232D6"/>
</g>
<defs>
<clipPath id="clip0_403_62">
<rect width="85" height="46" fill="white"/>
</clipPath>
</defs>
</svg>
